PathFileType  4	(X/Y/Z) C:\Users\antoi\Documents\MyRepositories\mobilecap\ResultsAnalysis
DataRate	CameraRate	NumFrames	NumMarkers	Units	OrigDataRate	OrigDataStartFrame	OrigNumFrames
100.0	100.0	4	51	mm	100.0	1	131
Frame#	Time	r_knee			r_shank_antsup			r_ankle			r_calc			r_5meta			r_toe			L_knee			L_shank_antsup			L_ankle			L_calc			L_5meta			L_toe			r_sh2			r_sh3			r_sh4			L_sh2			L_sh3			r_thigh1			r_thigh2			r_thigh3			r_thigh4			r_thigh5			L_thigh1			L_thigh2			L_thigh3			L_thigh4			r.ASIS			r.PSIS			L.ASIS			L.PSIS			C7			R_Shoulder			L_Shoulder			R_Sternum			L_Sternum			R_humerus			R_elbow_med			R_elbow_lat			R_forearm			R_wrist_radius			R_wrist_ulna			L_humerus			L_elbow_med			L_elbow_lat			L_forearm			L_wrist_radius			L_wrist_ulna			R_HJC			L_HJC			R_HJC_reg			L_HJC_reg			
		X1	Y1	Z1	X2	Y2	Z2	X3	Y3	Z3	X4	Y4	Z4	X5	Y5	Z5	X6	Y6	Z6	X7	Y7	Z7	X8	Y8	Z8	X9	Y9	Z9	X10	Y10	Z10	X11	Y11	Z11	X12	Y12	Z12	X13	Y13	Z13	X14	Y14	Z14	X15	Y15	Z15	X16	Y16	Z16	X17	Y17	Z17	X18	Y18	Z18	X19	Y19	Z19	X20	Y20	Z20	X21	Y21	Z21	X22	Y22	Z22	X23	Y23	Z23	X24	Y24	Z24	X25	Y25	Z25	X26	Y26	Z26	X27	Y27	Z27	X28	Y28	Z28	X29	Y29	Z29	X30	Y30	Z30	X31	Y31	Z31	X32	Y32	Z32	X33	Y33	Z33	X34	Y34	Z34	X35	Y35	Z35	X36	Y36	Z36	X37	Y37	Z37	X38	Y38	Z38	X39	Y39	Z39	X40	Y40	Z40	X41	Y41	Z41	X42	Y42	Z42	X43	Y43	Z43	X44	Y44	Z44	X45	Y45	Z45	X46	Y46	Z46	X47	Y47	Z47	X48	Y48	Z48	X49	Y49	Z49	X50	Y50	Z50	X51	Y51	Z51	

1	0.00000000	-24.35844	483.62532	-122.11895	44.74940	411.80061	-127.34118	105.54114	93.00391	-149.28158	66.23526	46.73873	-205.38036	233.95596	88.11243	-105.81227	254.09326	134.31766	-155.55232	-342.37996	480.61699	-399.56290	-351.85072	384.71472	-383.21028	-581.56133	134.97735	-367.36741	-666.06093	121.41421	-319.43947	-507.75139	39.53698	-400.71319	-453.69800	52.88837	-345.19958	80.93780	304.57455	-134.13692	-19.81171	386.73664	-91.50271	11.00610	276.29839	-95.54625	-413.49776	436.48400	-425.47381	-483.58832	337.01434	-427.93740	-92.89122	753.17303	-94.89954	-42.73706	657.67463	-111.13801	-77.20518	607.96766	-79.15799	-191.54600	696.38921	-73.55586	-128.21293	594.13406	-93.64281	-191.16108	697.40180	-423.02496	-217.53154	562.66123	-396.78238	-293.27818	711.33153	-458.53256	-321.55253	585.52871	-419.97777	-120.63271	927.06361	-143.54715	-329.07164	943.29105	-210.83165	-132.07321	924.99574	-401.67077	-331.17602	955.79671	-301.64677	-297.59135	1410.67444	-264.78102	-250.67648	1378.44187	-95.88267	-205.81377	1384.55574	-407.95290	-172.06816	1337.61093	-229.44107	-170.45308	1340.58833	-275.79623	-242.09754	1246.97563	-36.32735	-337.40545	1058.01235	-102.62616	-347.78711	1070.51249	-35.35815	-316.73664	999.60788	1.70871	-296.92878	827.28609	-12.16256	-340.17552	838.10251	16.37569	-141.42013	1264.93026	-460.99602	-148.70188	1053.70357	-437.00820	-115.52133	1078.03132	-506.50116	-40.27815	1066.62122	-493.48185	102.20229	981.25000	-430.25039	86.99791	959.31072	-473.40671	-197.89100	834.07959	-165.44923	-208.79934	837.15836	-354.67008	-186.41409	827.62892	-191.30698	-190.32853	850.88871	-360.19764	
2	0.01000000	-9.37967	484.03196	-121.79139	59.70362	411.26016	-128.91097	112.48320	91.76755	-150.00748	70.14642	49.09076	-206.05491	240.17541	79.83080	-108.26336	262.78975	123.91362	-158.69655	-326.06797	479.48835	-398.95642	-337.79574	383.22761	-383.15487	-575.13032	140.35025	-368.57531	-659.98991	131.21980	-320.34695	-506.38126	40.42004	-400.84870	-451.72325	51.91869	-345.26805	94.69278	303.62278	-135.76154	-3.77527	387.41859	-92.02157	24.95796	276.39001	-95.89413	-398.12456	437.46750	-424.86944	-470.96434	339.89787	-427.91952	-76.62178	753.44790	-92.35733	-27.07885	657.72516	-109.75787	-62.21723	607.78617	-78.39289	-175.95315	697.31508	-72.60927	-113.16937	594.58815	-93.91832	-174.61459	696.33310	-421.46220	-200.87499	561.45564	-395.90391	-276.84229	710.43637	-456.60745	-304.92206	584.30082	-418.65449	-104.28779	926.79017	-141.69898	-312.86815	943.02789	-208.81824	-115.17045	923.97782	-399.62346	-314.50511	955.18905	-300.19779	-283.55692	1409.87681	-262.40357	-236.20415	1377.57821	-93.57027	-192.18223	1384.23171	-406.15167	-157.54660	1337.50166	-227.27843	-155.84175	1340.58810	-273.67191	-227.16766	1245.98614	-34.34429	-322.02530	1056.75858	-100.81708	-332.62626	1069.33954	-33.60872	-301.88688	998.50766	3.56789	-282.14508	826.15142	-10.26484	-325.53955	836.97473	18.11177	-128.37768	1263.83979	-459.49609	-137.01744	1052.52476	-434.87066	-103.15098	1077.14846	-504.59212	-28.52836	1064.87658	-491.82983	113.23813	978.39916	-429.12066	98.33807	956.62149	-472.24565	-181.58104	833.80442	-163.25785	-192.19189	836.34039	-352.51141	-170.44444	827.55734	-189.26270	-173.47466	850.03225	-358.14297	
3	0.02000000	5.77620	484.64016	-121.41685	74.64193	410.76559	-130.30600	119.02428	90.66308	-150.62191	73.80132	51.30238	-206.61201	245.95389	71.98463	-110.48329	270.90127	114.02075	-161.59433	-309.12944	478.21776	-398.40727	-323.13842	381.63900	-383.19906	-568.07711	145.89384	-369.74684	-653.19095	141.46945	-321.25378	-504.82702	41.53673	-400.98018	-449.68059	50.98528	-345.33067	108.16240	302.67192	-137.22622	12.17216	388.22013	-92.29383	38.74355	276.60081	-96.01890	-382.00931	438.29451	-424.33155	-457.69926	342.80181	-427.92752	-60.31279	754.04493	-89.98079	-11.34950	658.11440	-108.45072	-47.02805	607.94563	-77.58205	-160.16602	698.49889	-71.55728	-97.97028	595.34033	-93.97729	-157.79975	695.36102	-419.84875	-183.71065	560.29799	-395.01170	-260.15449	709.46965	-454.65241	-287.83019	582.97254	-417.33111	-88.02557	926.71335	-139.80942	-296.71020	942.96428	-206.89943	-98.25390	923.02089	-397.49262	-297.85233	954.65903	-298.87123	-269.46604	1409.24163	-260.02582	-221.70831	1376.87540	-91.24422	-178.48964	1384.03270	-404.32302	-143.00745	1337.54800	-225.10722	-141.23640	1340.72173	-271.52646	-212.17283	1245.15718	-32.35188	-306.53220	1055.64813	-98.98298	-317.32903	1068.29365	-31.82694	-286.84564	997.54643	5.44246	-267.15900	825.15667	-8.34684	-310.68527	835.98166	19.87822	-115.37510	1262.84715	-458.03127	-125.45860	1051.46416	-432.70565	-91.09557	1076.25213	-502.68372	-16.97791	1063.09926	-490.20885	124.07282	975.39941	-428.07438	109.27801	953.78308	-471.14918	-165.36417	833.72883	-161.00818	-175.56998	835.59943	-350.29715	-154.56028	827.75896	-187.06564	-156.66282	849.22943	-355.92656	
4	0.03000000	21.21636	485.59781	-120.96668	89.49937	410.35673	-131.40454	124.83534	89.79439	-151.05607	76.98826	53.25255	-206.97990	250.93302	64.96040	-112.28486	277.96080	105.08830	-164.04013	-291.01489	476.66559	-397.95900	-307.34465	379.86170	-383.41482	-559.83726	151.76626	-370.85266	-644.97904	152.55123	-322.16406	-502.92820	43.11965	-401.10335	-447.49994	50.14884	-345.39358	121.08906	301.73456	-138.41917	27.91862	389.23027	-92.15138	52.17766	277.02792	-95.76575	-364.51893	438.83113	-423.91448	-443.22399	345.73174	-427.98180	-43.96299	755.20366	-87.90273	4.49838	659.10126	-107.27070	-31.48480	608.71712	-76.67732	-144.05247	700.13063	-70.30128	-82.49161	596.61460	-93.62664	-140.49685	694.56522	-418.15066	-165.61228	559.22664	-394.10151	-243.01342	708.35799	-452.64600	-269.89048	581.44663	-416.01146	-71.91324	926.99584	-137.84154	-280.65533	943.25503	-205.16343	-81.33360	922.18180	-395.20642	-281.25043	954.26444	-297.76839	-255.28148	1408.89904	-257.64764	-207.17313	1376.46916	-88.89695	-164.68394	1384.05954	-402.44279	-128.44297	1337.86724	-222.91956	-126.64181	1341.09326	-269.34458	-197.06035	1244.62600	-30.34240	-290.82902	1054.80312	-97.10502	-301.78623	1067.48523	-29.98910	-271.45751	996.84350	7.34588	-251.79807	824.42163	-6.39273	-295.42935	835.23866	21.70099	-102.44164	1262.03700	-456.62958	-114.12343	1050.62196	-430.48928	-79.57744	1075.35158	-500.77966	-5.77950	1061.27506	-488.64465	134.52839	972.12727	-427.18223	119.52072	950.68018	-470.17914	-149.32609	834.01552	-158.65654	-158.93274	835.00012	-347.98383	-138.84073	828.45407	-184.59628	-139.93291	848.53001	-353.41840	
